# xmcd CD database file
#
# Track frame offsets:
#	187
#	39715
#	76237
#	105972
#	125062
#	129625
#
# Disc length: 2147 seconds
#
# Revision: 1
# Processed by: cddbd v1.5.1PL0 Copyright (c) Steve Scherf et al.
# Submitted via: CDex 1.51
#
DISCID=48086106
DTITLE=Sonny Rollins - Don't Stop The Carnival [CD1]
DYEAR=1978
DGENRE=Jazz
TTITLE0=Don't Stop The Carnival
TTITLE1=Silver City
TTITLE2=Autumn Nocturne
TTITLE3=Camel
TTITLE4=Introducing The Performers
TTITLE5=Nobody Else But
EXTD=YEAR: 1978
EXTT0=
EXTT1=
EXTT2=
EXTT3=
EXTT4=
EXTT5=
PLAYORDER=
